<svg xmlns="http://www.w3.org/2000/svg" width="980" height="980" viewBox="0 0 980 980">
<rect width="980" height="980" fill="#f7f6f3"/>
<rect x="40.0" y="40.0" width="900.0" height="900.0" fill="#fff" stroke="#333" stroke-width="2"/>
<rect x="70.0" y="70.0" width="840.0" height="840.0" fill="none" stroke="#ccc" stroke-dasharray="6 5"/>
<line x1="73.0" y1="868.0" x2="907.0" y2="868.0" stroke="#d8d5d0" stroke-width="78.0" stroke-linecap="butt"/>
<line x1="112.0" y1="907.0" x2="112.0" y2="73.0" stroke="#d8d5d0" stroke-width="78.0" stroke-linecap="butt"/>
<line x1="73.0" y1="490.0" x2="907.0" y2="490.0" stroke="#d8d5d0" stroke-width="78.0" stroke-linecap="butt"/>
<line x1="490.0" y1="907.0" x2="490.0" y2="73.0" stroke="#d8d5d0" stroke-width="78.0" stroke-linecap="butt"/>
<line x1="73.0" y1="112.0" x2="907.0" y2="112.0" stroke="#d8d5d0" stroke-width="78.0" stroke-linecap="butt"/>
<line x1="868.0" y1="907.0" x2="868.0" y2="73.0" stroke="#d8d5d0" stroke-width="78.0" stroke-linecap="butt"/>
<path d="M490.0,490.0 L490.0,488.5 L490.0,487.0 L490.0,485.5 L490.0,484.0 L490.0,482.5 L490.0,480.9 L490.0,479.4 L490.0,477.9 L490.0,476.4 L490.0,474.9 L490.0,473.4 L490.0,471.9 L490.0,470.4 L490.0,468.9 L490.0,467.4 L490.0,465.8 L490.0,464.3 L490.0,462.8 L490.0,461.3 L490.0,459.8 L490.0,458.3 L490.0,456.8 L490.0,455.3 L490.0,453.8 L490.0,452.3 L490.0,450.7 L490.0,449.2 L490.0,447.7 L490.0,446.2 L490.0,444.7 L490.0,443.2 L490.0,441.7 L490.0,440.2 L490.0,438.7 L490.0,437.2 L490.0,435.6 L490.0,434.1 L490.0,432.6 L490.0,431.1 L490.0,429.6 L490.0,428.1 L490.0,426.6 L490.0,425.1 L490.0,423.6 L490.0,422.1 L490.0,420.5 L490.0,419.0 L490.0,417.5 L490.0,416.0 L490.0,414.5 L490.0,413.0 L490.0,411.5 L490.0,410.0 L490.0,408.5 L490.0,407.0 L490.0,405.4 L490.0,403.9 L490.0,402.4 L490.0,400.9 L490.0,399.4 L490.0,397.9 L490.0,396.4 L490.0,394.9 L490.0,393.4 L490.0,391.9 L490.0,390.3 L490.0,388.8 L490.0,387.3 L490.0,385.8 L490.0,384.3 L490.0,382.8 L490.0,381.3 L490.0,379.8 L490.0,378.3 L490.0,376.8 L490.0,375.2 L490.0,373.7 L490.0,372.2 L490.0,370.7 L490.0,369.2 L490.0,367.7 L490.0,366.2 L490.0,364.7 L490.0,363.2 L490.0,361.7 L490.0,360.1 L490.0,358.6 L490.0,357.1 L490.0,355.6 L490.0,354.1 L490.0,352.6 L490.0,351.1 L490.0,349.6 L490.0,348.1 L490.0,346.6 L490.0,345.0 L490.0,343.5 L490.0,342.0 L490.0,340.5 L490.0,339.0 L490.0,337.5 L490.0,336.0 L490.0,334.5 L490.0,333.0 L490.0,331.5 L490.0,329.9 L490.0,328.4 L490.0,326.9 L490.0,325.4 L490.0,323.9 L490.0,322.4 L490.0,320.9 L490.0,319.4 L490.0,317.9 L490.0,316.4 L490.0,314.8 L490.0,313.3 L490.0,311.8 L490.0,310.3 L490.0,308.8 L490.0,307.3 L490.0,305.8 L490.0,304.3 L490.0,302.8 L490.0,301.3 L490.0,299.7 L490.0,298.2 L490.0,296.7 L490.0,295.2 L490.0,293.7 L490.0,292.2 L490.0,290.7 L490.0,289.2 L490.0,287.7 L490.0,286.2 L490.0,284.6 L490.0,283.1 L490.0,281.6 L490.0,280.1 L490.0,278.6 L490.0,277.1 L490.0,275.6 L490.0,274.1 L490.0,272.6 L490.0,271.1 L490.0,269.5 L490.0,268.0 L490.0,266.5 L490.0,265.0 L490.0,263.5 L490.0,262.0 L489.9,256.0 L489.5,249.9 L488.9,243.9 L488.1,237.9 L487.0,232.0 L485.6,226.1 L484.1,220.3 L482.3,214.5 L480.3,208.8 L478.0,203.2 L475.5,197.7 L472.8,192.3 L469.9,187.0 L466.8,181.8 L463.4,176.8 L459.9,171.9 L456.2,167.1 L452.3,162.5 L448.2,158.1 L443.9,153.8 L439.5,149.7 L434.9,145.8 L430.1,142.1 L425.2,138.6 L420.2,135.2 L415.0,132.1 L409.7,129.2 L404.3,126.5 L398.8,124.0 L393.2,121.7 L387.5,119.7 L381.7,117.9 L375.9,116.4 L370.0,115.0 L364.1,113.9 L358.1,113.1 L352.1,112.5 L346.0,112.1 L340.0,112.0 L338.5,112.0 L336.9,112.0 L335.4,112.0 L333.9,112.0 L332.4,112.0 L330.8,112.0 L329.3,112.0 L327.8,112.0 L326.2,112.0 L324.7,112.0 L323.2,112.0 L321.6,112.0 L320.1,112.0 L318.6,112.0 L317.1,112.0 L315.5,112.0 L314.0,112.0 L312.5,112.0 L310.9,112.0 L309.4,112.0 L307.9,112.0 L306.4,112.0 L304.8,112.0 L303.3,112.0 L301.8,112.0 L300.2,112.0 L298.7,112.0 L297.2,112.0 L295.6,112.0 L294.1,112.0 L292.6,112.0 L291.1,112.0 L289.5,112.0 L288.0,112.0 L286.5,112.0 L284.9,112.0 L283.4,112.0 L281.9,112.0 L280.4,112.0 L278.8,112.0 L277.3,112.0 L275.8,112.0 L274.2,112.0 L272.7,112.0 L271.2,112.0 L269.6,112.0 L268.1,112.0 L266.6,112.0 L265.1,112.0 L263.5,112.0 L262.0,112.0 L256.0,112.1 L249.9,112.5 L243.9,113.1 L237.9,113.9 L232.0,115.0 L226.1,116.4 L220.3,117.9 L214.5,119.7 L208.8,121.7 L203.2,124.0 L197.7,126.5 L192.3,129.2 L187.0,132.1 L181.8,135.2 L176.8,138.6 L171.9,142.1 L167.1,145.8 L162.5,149.7 L158.1,153.8 L153.8,158.1 L149.7,162.5 L145.8,167.1 L142.1,171.9 L138.6,176.8 L135.2,181.8 L132.1,187.0 L129.2,192.3 L126.5,197.7 L124.0,203.2 L121.7,208.8 L119.7,214.5 L117.9,220.3 L116.4,226.1 L115.0,232.0 L113.9,237.9 L113.1,243.9 L112.5,249.9 L112.1,256.0 L112.0,262.0 L112.0,263.5 L112.0,265.1 L112.0,266.6 L112.0,268.1 L112.0,269.6 L112.0,271.2 L112.0,272.7 L112.0,274.2 L112.0,275.8 L112.0,277.3 L112.0,278.8 L112.0,280.4 L112.0,281.9 L112.0,283.4 L112.0,284.9 L112.0,286.5 L112.0,288.0 L112.0,289.5 L112.0,291.1 L112.0,292.6 L112.0,294.1 L112.0,295.6 L112.0,297.2 L112.0,298.7 L112.0,300.2 L112.0,301.8 L112.0,303.3 L112.0,304.8 L112.0,306.4 L112.0,307.9 L112.0,309.4 L112.0,310.9 L112.0,312.5 L112.0,314.0 L112.0,315.5 L112.0,317.1 L112.0,318.6 L112.0,320.1 L112.0,321.6 L112.0,323.2 L112.0,324.7 L112.0,326.2 L112.0,327.8 L112.0,329.3 L112.0,330.8 L112.0,332.4 L112.0,333.9 L112.0,335.4 L112.0,336.9 L112.0,338.5 L112.0,340.0 L112.1,346.0 L112.5,352.1 L113.1,358.1 L113.9,364.1 L115.0,370.0 L116.4,375.9 L117.9,381.7 L119.7,387.5 L121.7,393.2 L124.0,398.8 L126.5,404.3 L129.2,409.7 L132.1,415.0 L135.2,420.2 L138.6,425.2 L142.1,430.1 L145.8,434.9 L149.7,439.5 L153.8,443.9 L158.1,448.2 L162.5,452.3 L167.1,456.2 L171.9,459.9 L176.8,463.4 L181.8,466.8 L187.0,469.9 L192.3,472.8 L197.7,475.5 L203.2,478.0 L208.8,480.3 L214.5,482.3 L220.3,484.1 L226.1,485.6 L232.0,487.0 L237.9,488.1 L243.9,488.9 L249.9,489.5 L256.0,489.9 L262.0,490.0 L263.5,490.0 L265.0,490.0 L266.5,490.0 L268.0,490.0 L269.5,490.0 L271.1,490.0 L272.6,490.0 L274.1,490.0 L275.6,490.0 L277.1,490.0 L278.6,490.0 L280.1,490.0 L281.6,490.0 L283.1,490.0 L284.6,490.0 L286.2,490.0 L287.7,490.0 L289.2,490.0 L290.7,490.0 L292.2,490.0 L293.7,490.0 L295.2,490.0 L296.7,490.0 L298.2,490.0 L299.7,490.0 L301.3,490.0 L302.8,490.0 L304.3,490.0 L305.8,490.0 L307.3,490.0 L308.8,490.0 L310.3,490.0 L311.8,490.0 L313.3,490.0 L314.8,490.0 L316.4,490.0 L317.9,490.0 L319.4,490.0 L320.9,490.0 L322.4,490.0 L323.9,490.0 L325.4,490.0 L326.9,490.0 L328.4,490.0 L329.9,490.0 L331.5,490.0 L333.0,490.0 L334.5,490.0 L336.0,490.0 L337.5,490.0 L339.0,490.0 L340.5,490.0 L342.0,490.0 L343.5,490.0 L345.0,490.0 L346.6,490.0 L348.1,490.0 L349.6,490.0 L351.1,490.0 L352.6,490.0 L354.1,490.0 L355.6,490.0 L357.1,490.0 L358.6,490.0 L360.1,490.0 L361.7,490.0 L363.2,490.0 L364.7,490.0 L366.2,490.0 L367.7,490.0 L369.2,490.0 L370.7,490.0 L372.2,490.0 L373.7,490.0 L375.2,490.0 L376.8,490.0 L378.3,490.0 L379.8,490.0 L381.3,490.0 L382.8,490.0 L384.3,490.0 L385.8,490.0 L387.3,490.0 L388.8,490.0 L390.3,490.0 L391.9,490.0 L393.4,490.0 L394.9,490.0 L396.4,490.0 L397.9,490.0 L399.4,490.0 L400.9,490.0 L402.4,490.0 L403.9,490.0 L405.4,490.0 L407.0,490.0 L408.5,490.0 L410.0,490.0 L411.5,490.0 L413.0,490.0 L414.5,490.0 L416.0,490.0 L417.5,490.0 L419.0,490.0 L420.5,490.0 L422.1,490.0 L423.6,490.0 L425.1,490.0 L426.6,490.0 L428.1,490.0 L429.6,490.0 L431.1,490.0 L432.6,490.0 L434.1,490.0 L435.6,490.0 L437.2,490.0 L438.7,490.0 L440.2,490.0 L441.7,490.0 L443.2,490.0 L444.7,490.0 L446.2,490.0 L447.7,490.0 L449.2,490.0 L450.7,490.0 L452.3,490.0 L453.8,490.0 L455.3,490.0 L456.8,490.0 L458.3,490.0 L459.8,490.0 L461.3,490.0 L462.8,490.0 L464.3,490.0 L465.8,490.0 L467.4,490.0 L468.9,490.0 L470.4,490.0 L471.9,490.0 L473.4,490.0 L474.9,490.0 L476.4,490.0 L477.9,490.0 L479.4,490.0 L480.9,490.0 L482.5,490.0 L484.0,490.0 L485.5,490.0 L487.0,490.0 L488.5,490.0 L490.0,490.0 L491.5,490.0 L493.0,490.0 L494.5,490.0 L496.0,490.0 L497.5,490.0 L499.1,490.0 L500.6,490.0 L502.1,490.0 L503.6,490.0 L505.1,490.0 L506.6,490.0 L508.1,490.0 L509.6,490.0 L511.1,490.0 L512.6,490.0 L514.2,490.0 L515.7,490.0 L517.2,490.0 L518.7,490.0 L520.2,490.0 L521.7,490.0 L523.2,490.0 L524.7,490.0 L526.2,490.0 L527.7,490.0 L529.3,490.0 L530.8,490.0 L532.3,490.0 L533.8,490.0 L535.3,490.0 L536.8,490.0 L538.3,490.0 L539.8,490.0 L541.3,490.0 L542.8,490.0 L544.4,490.0 L545.9,490.0 L547.4,490.0 L548.9,490.0 L550.4,490.0 L551.9,490.0 L553.4,490.0 L554.9,490.0 L556.4,490.0 L557.9,490.0 L559.5,490.0 L561.0,490.0 L562.5,490.0 L564.0,490.0 L565.5,490.0 L567.0,490.0 L568.5,490.0 L570.0,490.0 L571.5,490.0 L573.0,490.0 L574.6,490.0 L576.1,490.0 L577.6,490.0 L579.1,490.0 L580.6,490.0 L582.1,490.0 L583.6,490.0 L585.1,490.0 L586.6,490.0 L588.1,490.0 L589.7,490.0 L591.2,490.0 L592.7,490.0 L594.2,490.0 L595.7,490.0 L597.2,490.0 L598.7,490.0 L600.2,490.0 L601.7,490.0 L603.2,490.0 L604.8,490.0 L606.3,490.0 L607.8,490.0 L609.3,490.0 L610.8,490.0 L612.3,490.0 L613.8,490.0 L615.3,490.0 L616.8,490.0 L618.3,490.0 L619.9,490.0 L621.4,490.0 L622.9,490.0 L624.4,490.0 L625.9,490.0 L627.4,490.0 L628.9,490.0 L630.4,490.0 L631.9,490.0 L633.4,490.0 L635.0,490.0 L636.5,490.0 L638.0,490.0 L639.5,490.0 L641.0,490.0 L642.5,490.0 L644.0,490.0 L645.5,490.0 L647.0,490.0 L648.5,490.0 L650.1,490.0 L651.6,490.0 L653.1,490.0 L654.6,490.0 L656.1,490.0 L657.6,490.0 L659.1,490.0 L660.6,490.0 L662.1,490.0 L663.6,490.0 L665.2,490.0 L666.7,490.0 L668.2,490.0 L669.7,490.0 L671.2,490.0 L672.7,490.0 L674.2,490.0 L675.7,490.0 L677.2,490.0 L678.7,490.0 L680.3,490.0 L681.8,490.0 L683.3,490.0 L684.8,490.0 L686.3,490.0 L687.8,490.0 L689.3,490.0 L690.8,490.0 L692.3,490.0 L693.8,490.0 L695.4,490.0 L696.9,490.0 L698.4,490.0 L699.9,490.0 L701.4,490.0 L702.9,490.0 L704.4,490.0 L705.9,490.0 L707.4,490.0 L708.9,490.0 L710.5,490.0 L712.0,490.0 L713.5,490.0 L715.0,490.0 L716.5,490.0 L718.0,490.0 L724.0,490.1 L730.1,490.5 L736.1,491.1 L742.1,491.9 L748.0,493.0 L753.9,494.4 L759.7,495.9 L765.5,497.7 L771.2,499.7 L776.8,502.0 L782.3,504.5 L787.7,507.2 L793.0,510.1 L798.2,513.2 L803.2,516.6 L808.1,520.1 L812.9,523.8 L817.5,527.7 L821.9,531.8 L826.2,536.1 L830.3,540.5 L834.2,545.1 L837.9,549.9 L841.4,554.8 L844.8,559.8 L847.9,565.0 L850.8,570.3 L853.5,575.7 L856.0,581.2 L858.3,586.8 L860.3,592.5 L862.1,598.3 L863.6,604.1 L865.0,610.0 L866.1,615.9 L866.9,621.9 L867.5,627.9 L867.9,634.0 L868.0,640.0 L868.0,641.5 L868.0,643.1 L868.0,644.6 L868.0,646.1 L868.0,647.6 L868.0,649.2 L868.0,650.7 L868.0,652.2 L868.0,653.8 L868.0,655.3 L868.0,656.8 L868.0,658.4 L868.0,659.9 L868.0,661.4 L868.0,662.9 L868.0,664.5 L868.0,666.0 L868.0,667.5 L868.0,669.1 L868.0,670.6 L868.0,672.1 L868.0,673.6 L868.0,675.2 L868.0,676.7 L868.0,678.2 L868.0,679.8 L868.0,681.3 L868.0,682.8 L868.0,684.4 L868.0,685.9 L868.0,687.4 L868.0,688.9 L868.0,690.5 L868.0,692.0 L868.0,693.5 L868.0,695.1 L868.0,696.6 L868.0,698.1 L868.0,699.6 L868.0,701.2 L868.0,702.7 L868.0,704.2 L868.0,705.8 L868.0,707.3 L868.0,708.8 L868.0,710.4 L868.0,711.9 L868.0,713.4 L868.0,714.9 L868.0,716.5 L868.0,718.0 L867.9,724.0 L867.5,730.1 L866.9,736.1 L866.1,742.1 L865.0,748.0 L863.6,753.9 L862.1,759.7 L860.3,765.5 L858.3,771.2 L856.0,776.8 L853.5,782.3 L850.8,787.7 L847.9,793.0 L844.8,798.2 L841.4,803.2 L837.9,808.1 L834.2,812.9 L830.3,817.5 L826.2,821.9 L821.9,826.2 L817.5,830.3 L812.9,834.2 L808.1,837.9 L803.2,841.4 L798.2,844.8 L793.0,847.9 L787.7,850.8 L782.3,853.5 L776.8,856.0 L771.2,858.3 L765.5,860.3 L759.7,862.1 L753.9,863.6 L748.0,865.0 L742.1,866.1 L736.1,866.9 L730.1,867.5 L724.0,867.9 L718.0,868.0 L716.5,868.0 L714.9,868.0 L713.4,868.0 L711.9,868.0 L710.4,868.0 L708.8,868.0 L707.3,868.0 L705.8,868.0 L704.2,868.0 L702.7,868.0 L701.2,868.0 L699.6,868.0 L698.1,868.0 L696.6,868.0 L695.1,868.0 L693.5,868.0 L692.0,868.0 L690.5,868.0 L688.9,868.0 L687.4,868.0 L685.9,868.0 L684.4,868.0 L682.8,868.0 L681.3,868.0 L679.8,868.0 L678.2,868.0 L676.7,868.0 L675.2,868.0 L673.6,868.0 L672.1,868.0 L670.6,868.0 L669.1,868.0 L667.5,868.0 L666.0,868.0 L664.5,868.0 L662.9,868.0 L661.4,868.0 L659.9,868.0 L658.4,868.0 L656.8,868.0 L655.3,868.0 L653.8,868.0 L652.2,868.0 L650.7,868.0 L649.2,868.0 L647.6,868.0 L646.1,868.0 L644.6,868.0 L643.1,868.0 L641.5,868.0 L640.0,868.0 L634.0,867.9 L627.9,867.5 L621.9,866.9 L615.9,866.1 L610.0,865.0 L604.1,863.6 L598.3,862.1 L592.5,860.3 L586.8,858.3 L581.2,856.0 L575.7,853.5 L570.3,850.8 L565.0,847.9 L559.8,844.8 L554.8,841.4 L549.9,837.9 L545.1,834.2 L540.5,830.3 L536.1,826.2 L531.8,821.9 L527.7,817.5 L523.8,812.9 L520.1,808.1 L516.6,803.2 L513.2,798.2 L510.1,793.0 L507.2,787.7 L504.5,782.3 L502.0,776.8 L499.7,771.2 L497.7,765.5 L495.9,759.7 L494.4,753.9 L493.0,748.0 L491.9,742.1 L491.1,736.1 L490.5,730.1 L490.1,724.0 L490.0,718.0 L490.0,716.5 L490.0,715.0 L490.0,713.5 L490.0,712.0 L490.0,710.5 L490.0,708.9 L490.0,707.4 L490.0,705.9 L490.0,704.4 L490.0,702.9 L490.0,701.4 L490.0,699.9 L490.0,698.4 L490.0,696.9 L490.0,695.4 L490.0,693.8 L490.0,692.3 L490.0,690.8 L490.0,689.3 L490.0,687.8 L490.0,686.3 L490.0,684.8 L490.0,683.3 L490.0,681.8 L490.0,680.3 L490.0,678.7 L490.0,677.2 L490.0,675.7 L490.0,674.2 L490.0,672.7 L490.0,671.2 L490.0,669.7 L490.0,668.2 L490.0,666.7 L490.0,665.2 L490.0,663.6 L490.0,662.1 L490.0,660.6 L490.0,659.1 L490.0,657.6 L490.0,656.1 L490.0,654.6 L490.0,653.1 L490.0,651.6 L490.0,650.1 L490.0,648.5 L490.0,647.0 L490.0,645.5 L490.0,644.0 L490.0,642.5 L490.0,641.0 L490.0,639.5 L490.0,638.0 L490.0,636.5 L490.0,635.0 L490.0,633.4 L490.0,631.9 L490.0,630.4 L490.0,628.9 L490.0,627.4 L490.0,625.9 L490.0,624.4 L490.0,622.9 L490.0,621.4 L490.0,619.9 L490.0,618.3 L490.0,616.8 L490.0,615.3 L490.0,613.8 L490.0,612.3 L490.0,610.8 L490.0,609.3 L490.0,607.8 L490.0,606.3 L490.0,604.8 L490.0,603.2 L490.0,601.7 L490.0,600.2 L490.0,598.7 L490.0,597.2 L490.0,595.7 L490.0,594.2 L490.0,592.7 L490.0,591.2 L490.0,589.7 L490.0,588.1 L490.0,586.6 L490.0,585.1 L490.0,583.6 L490.0,582.1 L490.0,580.6 L490.0,579.1 L490.0,577.6 L490.0,576.1 L490.0,574.6 L490.0,573.0 L490.0,571.5 L490.0,570.0 L490.0,568.5 L490.0,567.0 L490.0,565.5 L490.0,564.0 L490.0,562.5 L490.0,561.0 L490.0,559.5 L490.0,557.9 L490.0,556.4 L490.0,554.9 L490.0,553.4 L490.0,551.9 L490.0,550.4 L490.0,548.9 L490.0,547.4 L490.0,545.9 L490.0,544.4 L490.0,542.8 L490.0,541.3 L490.0,539.8 L490.0,538.3 L490.0,536.8 L490.0,535.3 L490.0,533.8 L490.0,532.3 L490.0,530.8 L490.0,529.3 L490.0,527.7 L490.0,526.2 L490.0,524.7 L490.0,523.2 L490.0,521.7 L490.0,520.2 L490.0,518.7 L490.0,517.2 L490.0,515.7 L490.0,514.2 L490.0,512.6 L490.0,511.1 L490.0,509.6 L490.0,508.1 L490.0,506.6 L490.0,505.1 L490.0,503.6 L490.0,502.1 L490.0,500.6 L490.0,499.1 L490.0,497.5 L490.0,496.0 L490.0,494.5 L490.0,493.0 L490.0,491.5 Z" fill="none" stroke="#5a5a5a" stroke-width="78.0" stroke-linecap="round"/>
<path d="M490.0,490.0 L490.0,488.5 L490.0,487.0 L490.0,485.5 L490.0,484.0 L490.0,482.5 L490.0,480.9 L490.0,479.4 L490.0,477.9 L490.0,476.4 L490.0,474.9 L490.0,473.4 L490.0,471.9 L490.0,470.4 L490.0,468.9 L490.0,467.4 L490.0,465.8 L490.0,464.3 L490.0,462.8 L490.0,461.3 L490.0,459.8 L490.0,458.3 L490.0,456.8 L490.0,455.3 L490.0,453.8 L490.0,452.3 L490.0,450.7 L490.0,449.2 L490.0,447.7 L490.0,446.2 L490.0,444.7 L490.0,443.2 L490.0,441.7 L490.0,440.2 L490.0,438.7 L490.0,437.2 L490.0,435.6 L490.0,434.1 L490.0,432.6 L490.0,431.1 L490.0,429.6 L490.0,428.1 L490.0,426.6 L490.0,425.1 L490.0,423.6 L490.0,422.1 L490.0,420.5 L490.0,419.0 L490.0,417.5 L490.0,416.0 L490.0,414.5 L490.0,413.0 L490.0,411.5 L490.0,410.0 L490.0,408.5 L490.0,407.0 L490.0,405.4 L490.0,403.9 L490.0,402.4 L490.0,400.9 L490.0,399.4 L490.0,397.9 L490.0,396.4 L490.0,394.9 L490.0,393.4 L490.0,391.9 L490.0,390.3 L490.0,388.8 L490.0,387.3 L490.0,385.8 L490.0,384.3 L490.0,382.8 L490.0,381.3 L490.0,379.8 L490.0,378.3 L490.0,376.8 L490.0,375.2 L490.0,373.7 L490.0,372.2 L490.0,370.7 L490.0,369.2 L490.0,367.7 L490.0,366.2 L490.0,364.7 L490.0,363.2 L490.0,361.7 L490.0,360.1 L490.0,358.6 L490.0,357.1 L490.0,355.6 L490.0,354.1 L490.0,352.6 L490.0,351.1 L490.0,349.6 L490.0,348.1 L490.0,346.6 L490.0,345.0 L490.0,343.5 L490.0,342.0 L490.0,340.5 L490.0,339.0 L490.0,337.5 L490.0,336.0 L490.0,334.5 L490.0,333.0 L490.0,331.5 L490.0,329.9 L490.0,328.4 L490.0,326.9 L490.0,325.4 L490.0,323.9 L490.0,322.4 L490.0,320.9 L490.0,319.4 L490.0,317.9 L490.0,316.4 L490.0,314.8 L490.0,313.3 L490.0,311.8 L490.0,310.3 L490.0,308.8 L490.0,307.3 L490.0,305.8 L490.0,304.3 L490.0,302.8 L490.0,301.3 L490.0,299.7 L490.0,298.2 L490.0,296.7 L490.0,295.2 L490.0,293.7 L490.0,292.2 L490.0,290.7 L490.0,289.2 L490.0,287.7 L490.0,286.2 L490.0,284.6 L490.0,283.1 L490.0,281.6 L490.0,280.1 L490.0,278.6 L490.0,277.1 L490.0,275.6 L490.0,274.1 L490.0,272.6 L490.0,271.1 L490.0,269.5 L490.0,268.0 L490.0,266.5 L490.0,265.0 L490.0,263.5 L490.0,262.0 L489.9,256.0 L489.5,249.9 L488.9,243.9 L488.1,237.9 L487.0,232.0 L485.6,226.1 L484.1,220.3 L482.3,214.5 L480.3,208.8 L478.0,203.2 L475.5,197.7 L472.8,192.3 L469.9,187.0 L466.8,181.8 L463.4,176.8 L459.9,171.9 L456.2,167.1 L452.3,162.5 L448.2,158.1 L443.9,153.8 L439.5,149.7 L434.9,145.8 L430.1,142.1 L425.2,138.6 L420.2,135.2 L415.0,132.1 L409.7,129.2 L404.3,126.5 L398.8,124.0 L393.2,121.7 L387.5,119.7 L381.7,117.9 L375.9,116.4 L370.0,115.0 L364.1,113.9 L358.1,113.1 L352.1,112.5 L346.0,112.1 L340.0,112.0 L338.5,112.0 L336.9,112.0 L335.4,112.0 L333.9,112.0 L332.4,112.0 L330.8,112.0 L329.3,112.0 L327.8,112.0 L326.2,112.0 L324.7,112.0 L323.2,112.0 L321.6,112.0 L320.1,112.0 L318.6,112.0 L317.1,112.0 L315.5,112.0 L314.0,112.0 L312.5,112.0 L310.9,112.0 L309.4,112.0 L307.9,112.0 L306.4,112.0 L304.8,112.0 L303.3,112.0 L301.8,112.0 L300.2,112.0 L298.7,112.0 L297.2,112.0 L295.6,112.0 L294.1,112.0 L292.6,112.0 L291.1,112.0 L289.5,112.0 L288.0,112.0 L286.5,112.0 L284.9,112.0 L283.4,112.0 L281.9,112.0 L280.4,112.0 L278.8,112.0 L277.3,112.0 L275.8,112.0 L274.2,112.0 L272.7,112.0 L271.2,112.0 L269.6,112.0 L268.1,112.0 L266.6,112.0 L265.1,112.0 L263.5,112.0 L262.0,112.0 L256.0,112.1 L249.9,112.5 L243.9,113.1 L237.9,113.9 L232.0,115.0 L226.1,116.4 L220.3,117.9 L214.5,119.7 L208.8,121.7 L203.2,124.0 L197.7,126.5 L192.3,129.2 L187.0,132.1 L181.8,135.2 L176.8,138.6 L171.9,142.1 L167.1,145.8 L162.5,149.7 L158.1,153.8 L153.8,158.1 L149.7,162.5 L145.8,167.1 L142.1,171.9 L138.6,176.8 L135.2,181.8 L132.1,187.0 L129.2,192.3 L126.5,197.7 L124.0,203.2 L121.7,208.8 L119.7,214.5 L117.9,220.3 L116.4,226.1 L115.0,232.0 L113.9,237.9 L113.1,243.9 L112.5,249.9 L112.1,256.0 L112.0,262.0 L112.0,263.5 L112.0,265.1 L112.0,266.6 L112.0,268.1 L112.0,269.6 L112.0,271.2 L112.0,272.7 L112.0,274.2 L112.0,275.8 L112.0,277.3 L112.0,278.8 L112.0,280.4 L112.0,281.9 L112.0,283.4 L112.0,284.9 L112.0,286.5 L112.0,288.0 L112.0,289.5 L112.0,291.1 L112.0,292.6 L112.0,294.1 L112.0,295.6 L112.0,297.2 L112.0,298.7 L112.0,300.2 L112.0,301.8 L112.0,303.3 L112.0,304.8 L112.0,306.4 L112.0,307.9 L112.0,309.4 L112.0,310.9 L112.0,312.5 L112.0,314.0 L112.0,315.5 L112.0,317.1 L112.0,318.6 L112.0,320.1 L112.0,321.6 L112.0,323.2 L112.0,324.7 L112.0,326.2 L112.0,327.8 L112.0,329.3 L112.0,330.8 L112.0,332.4 L112.0,333.9 L112.0,335.4 L112.0,336.9 L112.0,338.5 L112.0,340.0 L112.1,346.0 L112.5,352.1 L113.1,358.1 L113.9,364.1 L115.0,370.0 L116.4,375.9 L117.9,381.7 L119.7,387.5 L121.7,393.2 L124.0,398.8 L126.5,404.3 L129.2,409.7 L132.1,415.0 L135.2,420.2 L138.6,425.2 L142.1,430.1 L145.8,434.9 L149.7,439.5 L153.8,443.9 L158.1,448.2 L162.5,452.3 L167.1,456.2 L171.9,459.9 L176.8,463.4 L181.8,466.8 L187.0,469.9 L192.3,472.8 L197.7,475.5 L203.2,478.0 L208.8,480.3 L214.5,482.3 L220.3,484.1 L226.1,485.6 L232.0,487.0 L237.9,488.1 L243.9,488.9 L249.9,489.5 L256.0,489.9 L262.0,490.0 L263.5,490.0 L265.0,490.0 L266.5,490.0 L268.0,490.0 L269.5,490.0 L271.1,490.0 L272.6,490.0 L274.1,490.0 L275.6,490.0 L277.1,490.0 L278.6,490.0 L280.1,490.0 L281.6,490.0 L283.1,490.0 L284.6,490.0 L286.2,490.0 L287.7,490.0 L289.2,490.0 L290.7,490.0 L292.2,490.0 L293.7,490.0 L295.2,490.0 L296.7,490.0 L298.2,490.0 L299.7,490.0 L301.3,490.0 L302.8,490.0 L304.3,490.0 L305.8,490.0 L307.3,490.0 L308.8,490.0 L310.3,490.0 L311.8,490.0 L313.3,490.0 L314.8,490.0 L316.4,490.0 L317.9,490.0 L319.4,490.0 L320.9,490.0 L322.4,490.0 L323.9,490.0 L325.4,490.0 L326.9,490.0 L328.4,490.0 L329.9,490.0 L331.5,490.0 L333.0,490.0 L334.5,490.0 L336.0,490.0 L337.5,490.0 L339.0,490.0 L340.5,490.0 L342.0,490.0 L343.5,490.0 L345.0,490.0 L346.6,490.0 L348.1,490.0 L349.6,490.0 L351.1,490.0 L352.6,490.0 L354.1,490.0 L355.6,490.0 L357.1,490.0 L358.6,490.0 L360.1,490.0 L361.7,490.0 L363.2,490.0 L364.7,490.0 L366.2,490.0 L367.7,490.0 L369.2,490.0 L370.7,490.0 L372.2,490.0 L373.7,490.0 L375.2,490.0 L376.8,490.0 L378.3,490.0 L379.8,490.0 L381.3,490.0 L382.8,490.0 L384.3,490.0 L385.8,490.0 L387.3,490.0 L388.8,490.0 L390.3,490.0 L391.9,490.0 L393.4,490.0 L394.9,490.0 L396.4,490.0 L397.9,490.0 L399.4,490.0 L400.9,490.0 L402.4,490.0 L403.9,490.0 L405.4,490.0 L407.0,490.0 L408.5,490.0 L410.0,490.0 L411.5,490.0 L413.0,490.0 L414.5,490.0 L416.0,490.0 L417.5,490.0 L419.0,490.0 L420.5,490.0 L422.1,490.0 L423.6,490.0 L425.1,490.0 L426.6,490.0 L428.1,490.0 L429.6,490.0 L431.1,490.0 L432.6,490.0 L434.1,490.0 L435.6,490.0 L437.2,490.0 L438.7,490.0 L440.2,490.0 L441.7,490.0 L443.2,490.0 L444.7,490.0 L446.2,490.0 L447.7,490.0 L449.2,490.0 L450.7,490.0 L452.3,490.0 L453.8,490.0 L455.3,490.0 L456.8,490.0 L458.3,490.0 L459.8,490.0 L461.3,490.0 L462.8,490.0 L464.3,490.0 L465.8,490.0 L467.4,490.0 L468.9,490.0 L470.4,490.0 L471.9,490.0 L473.4,490.0 L474.9,490.0 L476.4,490.0 L477.9,490.0 L479.4,490.0 L480.9,490.0 L482.5,490.0 L484.0,490.0 L485.5,490.0 L487.0,490.0 L488.5,490.0 L490.0,490.0 L491.5,490.0 L493.0,490.0 L494.5,490.0 L496.0,490.0 L497.5,490.0 L499.1,490.0 L500.6,490.0 L502.1,490.0 L503.6,490.0 L505.1,490.0 L506.6,490.0 L508.1,490.0 L509.6,490.0 L511.1,490.0 L512.6,490.0 L514.2,490.0 L515.7,490.0 L517.2,490.0 L518.7,490.0 L520.2,490.0 L521.7,490.0 L523.2,490.0 L524.7,490.0 L526.2,490.0 L527.7,490.0 L529.3,490.0 L530.8,490.0 L532.3,490.0 L533.8,490.0 L535.3,490.0 L536.8,490.0 L538.3,490.0 L539.8,490.0 L541.3,490.0 L542.8,490.0 L544.4,490.0 L545.9,490.0 L547.4,490.0 L548.9,490.0 L550.4,490.0 L551.9,490.0 L553.4,490.0 L554.9,490.0 L556.4,490.0 L557.9,490.0 L559.5,490.0 L561.0,490.0 L562.5,490.0 L564.0,490.0 L565.5,490.0 L567.0,490.0 L568.5,490.0 L570.0,490.0 L571.5,490.0 L573.0,490.0 L574.6,490.0 L576.1,490.0 L577.6,490.0 L579.1,490.0 L580.6,490.0 L582.1,490.0 L583.6,490.0 L585.1,490.0 L586.6,490.0 L588.1,490.0 L589.7,490.0 L591.2,490.0 L592.7,490.0 L594.2,490.0 L595.7,490.0 L597.2,490.0 L598.7,490.0 L600.2,490.0 L601.7,490.0 L603.2,490.0 L604.8,490.0 L606.3,490.0 L607.8,490.0 L609.3,490.0 L610.8,490.0 L612.3,490.0 L613.8,490.0 L615.3,490.0 L616.8,490.0 L618.3,490.0 L619.9,490.0 L621.4,490.0 L622.9,490.0 L624.4,490.0 L625.9,490.0 L627.4,490.0 L628.9,490.0 L630.4,490.0 L631.9,490.0 L633.4,490.0 L635.0,490.0 L636.5,490.0 L638.0,490.0 L639.5,490.0 L641.0,490.0 L642.5,490.0 L644.0,490.0 L645.5,490.0 L647.0,490.0 L648.5,490.0 L650.1,490.0 L651.6,490.0 L653.1,490.0 L654.6,490.0 L656.1,490.0 L657.6,490.0 L659.1,490.0 L660.6,490.0 L662.1,490.0 L663.6,490.0 L665.2,490.0 L666.7,490.0 L668.2,490.0 L669.7,490.0 L671.2,490.0 L672.7,490.0 L674.2,490.0 L675.7,490.0 L677.2,490.0 L678.7,490.0 L680.3,490.0 L681.8,490.0 L683.3,490.0 L684.8,490.0 L686.3,490.0 L687.8,490.0 L689.3,490.0 L690.8,490.0 L692.3,490.0 L693.8,490.0 L695.4,490.0 L696.9,490.0 L698.4,490.0 L699.9,490.0 L701.4,490.0 L702.9,490.0 L704.4,490.0 L705.9,490.0 L707.4,490.0 L708.9,490.0 L710.5,490.0 L712.0,490.0 L713.5,490.0 L715.0,490.0 L716.5,490.0 L718.0,490.0 L724.0,490.1 L730.1,490.5 L736.1,491.1 L742.1,491.9 L748.0,493.0 L753.9,494.4 L759.7,495.9 L765.5,497.7 L771.2,499.7 L776.8,502.0 L782.3,504.5 L787.7,507.2 L793.0,510.1 L798.2,513.2 L803.2,516.6 L808.1,520.1 L812.9,523.8 L817.5,527.7 L821.9,531.8 L826.2,536.1 L830.3,540.5 L834.2,545.1 L837.9,549.9 L841.4,554.8 L844.8,559.8 L847.9,565.0 L850.8,570.3 L853.5,575.7 L856.0,581.2 L858.3,586.8 L860.3,592.5 L862.1,598.3 L863.6,604.1 L865.0,610.0 L866.1,615.9 L866.9,621.9 L867.5,627.9 L867.9,634.0 L868.0,640.0 L868.0,641.5 L868.0,643.1 L868.0,644.6 L868.0,646.1 L868.0,647.6 L868.0,649.2 L868.0,650.7 L868.0,652.2 L868.0,653.8 L868.0,655.3 L868.0,656.8 L868.0,658.4 L868.0,659.9 L868.0,661.4 L868.0,662.9 L868.0,664.5 L868.0,666.0 L868.0,667.5 L868.0,669.1 L868.0,670.6 L868.0,672.1 L868.0,673.6 L868.0,675.2 L868.0,676.7 L868.0,678.2 L868.0,679.8 L868.0,681.3 L868.0,682.8 L868.0,684.4 L868.0,685.9 L868.0,687.4 L868.0,688.9 L868.0,690.5 L868.0,692.0 L868.0,693.5 L868.0,695.1 L868.0,696.6 L868.0,698.1 L868.0,699.6 L868.0,701.2 L868.0,702.7 L868.0,704.2 L868.0,705.8 L868.0,707.3 L868.0,708.8 L868.0,710.4 L868.0,711.9 L868.0,713.4 L868.0,714.9 L868.0,716.5 L868.0,718.0 L867.9,724.0 L867.5,730.1 L866.9,736.1 L866.1,742.1 L865.0,748.0 L863.6,753.9 L862.1,759.7 L860.3,765.5 L858.3,771.2 L856.0,776.8 L853.5,782.3 L850.8,787.7 L847.9,793.0 L844.8,798.2 L841.4,803.2 L837.9,808.1 L834.2,812.9 L830.3,817.5 L826.2,821.9 L821.9,826.2 L817.5,830.3 L812.9,834.2 L808.1,837.9 L803.2,841.4 L798.2,844.8 L793.0,847.9 L787.7,850.8 L782.3,853.5 L776.8,856.0 L771.2,858.3 L765.5,860.3 L759.7,862.1 L753.9,863.6 L748.0,865.0 L742.1,866.1 L736.1,866.9 L730.1,867.5 L724.0,867.9 L718.0,868.0 L716.5,868.0 L714.9,868.0 L713.4,868.0 L711.9,868.0 L710.4,868.0 L708.8,868.0 L707.3,868.0 L705.8,868.0 L704.2,868.0 L702.7,868.0 L701.2,868.0 L699.6,868.0 L698.1,868.0 L696.6,868.0 L695.1,868.0 L693.5,868.0 L692.0,868.0 L690.5,868.0 L688.9,868.0 L687.4,868.0 L685.9,868.0 L684.4,868.0 L682.8,868.0 L681.3,868.0 L679.8,868.0 L678.2,868.0 L676.7,868.0 L675.2,868.0 L673.6,868.0 L672.1,868.0 L670.6,868.0 L669.1,868.0 L667.5,868.0 L666.0,868.0 L664.5,868.0 L662.9,868.0 L661.4,868.0 L659.9,868.0 L658.4,868.0 L656.8,868.0 L655.3,868.0 L653.8,868.0 L652.2,868.0 L650.7,868.0 L649.2,868.0 L647.6,868.0 L646.1,868.0 L644.6,868.0 L643.1,868.0 L641.5,868.0 L640.0,868.0 L634.0,867.9 L627.9,867.5 L621.9,866.9 L615.9,866.1 L610.0,865.0 L604.1,863.6 L598.3,862.1 L592.5,860.3 L586.8,858.3 L581.2,856.0 L575.7,853.5 L570.3,850.8 L565.0,847.9 L559.8,844.8 L554.8,841.4 L549.9,837.9 L545.1,834.2 L540.5,830.3 L536.1,826.2 L531.8,821.9 L527.7,817.5 L523.8,812.9 L520.1,808.1 L516.6,803.2 L513.2,798.2 L510.1,793.0 L507.2,787.7 L504.5,782.3 L502.0,776.8 L499.7,771.2 L497.7,765.5 L495.9,759.7 L494.4,753.9 L493.0,748.0 L491.9,742.1 L491.1,736.1 L490.5,730.1 L490.1,724.0 L490.0,718.0 L490.0,716.5 L490.0,715.0 L490.0,713.5 L490.0,712.0 L490.0,710.5 L490.0,708.9 L490.0,707.4 L490.0,705.9 L490.0,704.4 L490.0,702.9 L490.0,701.4 L490.0,699.9 L490.0,698.4 L490.0,696.9 L490.0,695.4 L490.0,693.8 L490.0,692.3 L490.0,690.8 L490.0,689.3 L490.0,687.8 L490.0,686.3 L490.0,684.8 L490.0,683.3 L490.0,681.8 L490.0,680.3 L490.0,678.7 L490.0,677.2 L490.0,675.7 L490.0,674.2 L490.0,672.7 L490.0,671.2 L490.0,669.7 L490.0,668.2 L490.0,666.7 L490.0,665.2 L490.0,663.6 L490.0,662.1 L490.0,660.6 L490.0,659.1 L490.0,657.6 L490.0,656.1 L490.0,654.6 L490.0,653.1 L490.0,651.6 L490.0,650.1 L490.0,648.5 L490.0,647.0 L490.0,645.5 L490.0,644.0 L490.0,642.5 L490.0,641.0 L490.0,639.5 L490.0,638.0 L490.0,636.5 L490.0,635.0 L490.0,633.4 L490.0,631.9 L490.0,630.4 L490.0,628.9 L490.0,627.4 L490.0,625.9 L490.0,624.4 L490.0,622.9 L490.0,621.4 L490.0,619.9 L490.0,618.3 L490.0,616.8 L490.0,615.3 L490.0,613.8 L490.0,612.3 L490.0,610.8 L490.0,609.3 L490.0,607.8 L490.0,606.3 L490.0,604.8 L490.0,603.2 L490.0,601.7 L490.0,600.2 L490.0,598.7 L490.0,597.2 L490.0,595.7 L490.0,594.2 L490.0,592.7 L490.0,591.2 L490.0,589.7 L490.0,588.1 L490.0,586.6 L490.0,585.1 L490.0,583.6 L490.0,582.1 L490.0,580.6 L490.0,579.1 L490.0,577.6 L490.0,576.1 L490.0,574.6 L490.0,573.0 L490.0,571.5 L490.0,570.0 L490.0,568.5 L490.0,567.0 L490.0,565.5 L490.0,564.0 L490.0,562.5 L490.0,561.0 L490.0,559.5 L490.0,557.9 L490.0,556.4 L490.0,554.9 L490.0,553.4 L490.0,551.9 L490.0,550.4 L490.0,548.9 L490.0,547.4 L490.0,545.9 L490.0,544.4 L490.0,542.8 L490.0,541.3 L490.0,539.8 L490.0,538.3 L490.0,536.8 L490.0,535.3 L490.0,533.8 L490.0,532.3 L490.0,530.8 L490.0,529.3 L490.0,527.7 L490.0,526.2 L490.0,524.7 L490.0,523.2 L490.0,521.7 L490.0,520.2 L490.0,518.7 L490.0,517.2 L490.0,515.7 L490.0,514.2 L490.0,512.6 L490.0,511.1 L490.0,509.6 L490.0,508.1 L490.0,506.6 L490.0,505.1 L490.0,503.6 L490.0,502.1 L490.0,500.6 L490.0,499.1 L490.0,497.5 L490.0,496.0 L490.0,494.5 L490.0,493.0 L490.0,491.5 Z" fill="none" stroke="#f2c200" stroke-width="2.5" stroke-dasharray="14 7"/>
<rect x="73.0" y="829.0" width="78.0" height="78.0" fill="none" stroke="#1f6feb" stroke-width="1.5" stroke-dasharray="4 3"/>
<rect x="73.0" y="451.0" width="78.0" height="78.0" fill="none" stroke="#1f6feb" stroke-width="1.5" stroke-dasharray="4 3"/>
<rect x="73.0" y="73.0" width="78.0" height="78.0" fill="none" stroke="#1f6feb" stroke-width="1.5" stroke-dasharray="4 3"/>
<rect x="451.0" y="829.0" width="78.0" height="78.0" fill="none" stroke="#1f6feb" stroke-width="1.5" stroke-dasharray="4 3"/>
<rect x="451.0" y="451.0" width="78.0" height="78.0" fill="none" stroke="#1f6feb" stroke-width="1.5" stroke-dasharray="4 3"/>
<rect x="451.0" y="73.0" width="78.0" height="78.0" fill="none" stroke="#1f6feb" stroke-width="1.5" stroke-dasharray="4 3"/>
<rect x="829.0" y="829.0" width="78.0" height="78.0" fill="none" stroke="#1f6feb" stroke-width="1.5" stroke-dasharray="4 3"/>
<rect x="829.0" y="451.0" width="78.0" height="78.0" fill="none" stroke="#1f6feb" stroke-width="1.5" stroke-dasharray="4 3"/>
<rect x="829.0" y="73.0" width="78.0" height="78.0" fill="none" stroke="#1f6feb" stroke-width="1.5" stroke-dasharray="4 3"/>
<text x="490.0" y="26.0" text-anchor="middle" font-family="sans-serif" font-size="17" font-weight="bold">Track v2 &#8212; 3&#215;3 city grid, figure-8 route, 3.00 &#215; 3.00 m</text>
<text x="40.0" y="944.0" font-family="sans-serif" font-size="12" fill="#444">street pitch 1260 mm, span 2780 mm of 2800 usable &#8212; 20 mm SPARE</text>
<text x="40.0" y="959.0" font-family="sans-serif" font-size="12" fill="#444">corner radius 500 mm &#8212; ONLY 500 mm fits a 3&#215;3 grid; B3 above 500 leaves a 2&#215;2 plus sign</text>
<text x="40.0" y="974.0" font-family="sans-serif" font-size="12" fill="#444">9 intersections, 4 blocks, driven as a figure-8 (both turn directions, level crossing at centre)</text>
<text x="40.0" y="989.0" font-family="sans-serif" font-size="12" fill="#444">HYBRID print: 79 marking tiles for arcs + intersection boxes, ~970 g &#8212; NOT 225 panels</text>
</svg>